<svg width="56" height="56" viewBox="0 0 56 56" fill="none" xmlns="http://www.w3.org/2000/svg">
<circle cx="28" cy="28" r="28" fill="white"/>
<path d="M28 56C31.677 56 35.318 55.2758 38.7151 53.8686C42.1123 52.4615 45.1989 50.399 47.799 47.799C50.399 45.1989 52.4615 42.1123 53.8686 38.7151C55.2758 35.318 56 31.677 56 28H52.5336C52.5336 31.2218 51.899 34.412 50.6661 37.3886C49.4332 40.3652 47.626 43.0697 45.3479 45.3479C43.0697 47.626 40.3652 49.4332 37.3886 50.6661C34.412 51.899 31.2218 52.5336 28 52.5336L28 56Z" fill="#F4B400"/>
<ellipse cx="54.2325" cy="28" rx="1.4" ry="1.7325" transform="rotate(90 54.2325 28)" fill="#DB4437"/>
<path d="M0 28C-3.21455e-07 31.677 0.724241 35.318 2.13137 38.7151C3.5385 42.1123 5.60097 45.1989 8.20101 47.799C10.801 50.399 13.8877 52.4615 17.2849 53.8686C20.682 55.2758 24.323 56 28 56L28 52.5336C24.7782 52.5336 21.588 51.899 18.6114 50.6661C15.6348 49.4332 12.9303 47.626 10.6521 45.3479C8.37397 43.0697 6.56684 40.3652 5.33391 37.3886C4.10098 34.412 3.4664 31.2218 3.4664 28L0 28Z" fill="#0F9D58"/>
<ellipse cx="28" cy="54.2675" rx="1.4" ry="1.7325" transform="rotate(-180 28 54.2675)" fill="#F4B400"/>
<path d="M28 0C20.5739 -8.85549e-08 13.452 2.94999 8.20101 8.20101C2.94999 13.452 6.49207e-07 20.5739 0 28L3.4664 28C3.4664 21.4933 6.05118 15.2531 10.6521 10.6521C15.2531 6.05118 21.4933 3.4664 28 3.4664L28 0Z" fill="#4285F4"/>
<ellipse cx="1.73251" cy="28" rx="1.4" ry="1.7325" transform="rotate(90 1.73251 28)" fill="#0F9D58"/>
<path d="M56 28C56 24.323 55.2758 20.682 53.8686 17.2849C52.4615 13.8877 50.399 10.8011 47.799 8.20101C45.1989 5.60097 42.1123 3.5385 38.7151 2.13137C35.318 0.724241 31.677 -1.60727e-07 28 0L28 3.4664C31.2218 3.4664 34.412 4.10098 37.3886 5.33391C40.3652 6.56684 43.0697 8.37397 45.3479 10.6521C47.626 12.9303 49.4332 15.6348 50.6661 18.6114C51.899 21.588 52.5336 24.7782 52.5336 28H56Z" fill="#DB4437"/>
<ellipse cx="28" cy="1.7325" rx="1.4" ry="1.7325" fill="#4285F4"/>
<path d="M16.1477 33V21.3636H20.5114C21.4053 21.3636 22.1553 21.5189 22.7614 21.8295C23.3712 22.1402 23.8314 22.5758 24.142 23.1364C24.4564 23.6932 24.6136 24.3428 24.6136 25.0852C24.6136 25.8314 24.4545 26.4792 24.1364 27.0284C23.822 27.5739 23.358 27.9962 22.7443 28.2955C22.1307 28.5909 21.3769 28.7386 20.483 28.7386H17.375V26.9886H20.1989C20.7216 26.9886 21.1496 26.9167 21.483 26.7727C21.8163 26.625 22.0625 26.411 22.2216 26.1307C22.3845 25.8466 22.4659 25.4981 22.4659 25.0852C22.4659 24.6723 22.3845 24.3201 22.2216 24.0284C22.0587 23.733 21.8106 23.5095 21.4773 23.358C21.1439 23.2027 20.714 23.125 20.1875 23.125H18.2557V33H16.1477ZM22.1591 27.7273L25.0398 33H22.6875L19.858 27.7273H22.1591ZM28.6619 21.3636V33H26.554V21.3636H28.6619ZM30.4332 23.1307V21.3636H39.7173V23.1307H36.1207V33H34.0298V23.1307H30.4332Z" fill="black"/>
</svg>
