<svg width="175" height="25" viewBox="0 0 175 25" fill="none" xmlns="http://www.w3.org/2000/svg">
<path d="M0.292 11.352C0.292 9.976 0.572 8.776 1.132 7.752C1.692 6.712 2.468 5.912 3.46 5.352C4.452 4.776 5.588 4.488 6.868 4.488C8.516 4.488 9.876 4.904 10.948 5.736C12.036 6.552 12.764 7.704 13.132 9.192H9.508C9.316 8.616 8.988 8.168 8.524 7.848C8.076 7.512 7.516 7.344 6.844 7.344C5.884 7.344 5.124 7.696 4.564 8.4C4.004 9.088 3.724 10.072 3.724 11.352C3.724 12.616 4.004 13.6 4.564 14.304C5.124 14.992 5.884 15.336 6.844 15.336C8.204 15.336 9.092 14.728 9.508 13.512H13.132C12.764 14.952 12.036 16.096 10.948 16.944C9.86 17.792 8.5 18.216 6.868 18.216C5.588 18.216 4.452 17.936 3.46 17.376C2.468 16.8 1.692 16 1.132 14.976C0.572 13.936 0.292 12.728 0.292 11.352ZM21.4975 18.216C20.2175 18.216 19.0655 17.936 18.0415 17.376C17.0175 16.8 16.2095 15.992 15.6175 14.952C15.0415 13.912 14.7535 12.712 14.7535 11.352C14.7535 9.992 15.0495 8.792 15.6415 7.752C16.2495 6.712 17.0735 5.912 18.1135 5.352C19.1535 4.776 20.3135 4.488 21.5935 4.488C22.8735 4.488 24.0335 4.776 25.0735 5.352C26.1135 5.912 26.9295 6.712 27.5215 7.752C28.1295 8.792 28.4335 9.992 28.4335 11.352C28.4335 12.712 28.1215 13.912 27.4975 14.952C26.8895 15.992 26.0575 16.8 25.0015 17.376C23.9615 17.936 22.7935 18.216 21.4975 18.216ZM21.4975 15.288C22.1055 15.288 22.6735 15.144 23.2015 14.856C23.7455 14.552 24.1775 14.104 24.4975 13.512C24.8175 12.92 24.9775 12.2 24.9775 11.352C24.9775 10.088 24.6415 9.12 23.9695 8.448C23.3135 7.76 22.5055 7.416 21.5455 7.416C20.5855 7.416 19.7775 7.76 19.1215 8.448C18.4815 9.12 18.1615 10.088 18.1615 11.352C18.1615 12.616 18.4735 13.592 19.0975 14.28C19.7375 14.952 20.5375 15.288 21.4975 15.288ZM47.4102 4.512C49.0422 4.512 50.3542 5.016 51.3462 6.024C52.3542 7.016 52.8582 8.408 52.8582 10.2V18H49.4982V10.656C49.4982 9.616 49.2342 8.824 48.7062 8.28C48.1782 7.72 47.4582 7.44 46.5462 7.44C45.6342 7.44 44.9062 7.72 44.3622 8.28C43.8342 8.824 43.5702 9.616 43.5702 10.656V18H40.2102V10.656C40.2102 9.616 39.9462 8.824 39.4182 8.28C38.8902 7.72 38.1702 7.44 37.2582 7.44C36.3302 7.44 35.5942 7.72 35.0502 8.28C34.5222 8.824 34.2582 9.616 34.2582 10.656V18H30.8982V4.704H34.2582V6.312C34.6902 5.752 35.2422 5.312 35.9142 4.992C36.6022 4.672 37.3542 4.512 38.1702 4.512C39.2102 4.512 40.1382 4.736 40.9542 5.184C41.7702 5.616 42.4022 6.24 42.8502 7.056C43.2822 6.288 43.9062 5.672 44.7222 5.208C45.5542 4.744 46.4502 4.512 47.4102 4.512ZM59.4066 6.624C59.8386 6.016 60.4306 5.512 61.1826 5.112C61.9506 4.696 62.8226 4.488 63.7986 4.488C64.9346 4.488 65.9586 4.768 66.8706 5.328C67.7986 5.888 68.5266 6.688 69.0546 7.728C69.5986 8.752 69.8706 9.944 69.8706 11.304C69.8706 12.664 69.5986 13.872 69.0546 14.928C68.5266 15.968 67.7986 16.776 66.8706 17.352C65.9586 17.928 64.9346 18.216 63.7986 18.216C62.8226 18.216 61.9586 18.016 61.2066 17.616C60.4706 17.216 59.8706 16.712 59.4066 16.104V24.336H56.0466V4.704H59.4066V6.624ZM66.4386 11.304C66.4386 10.504 66.2706 9.816 65.9346 9.24C65.6146 8.648 65.1826 8.2 64.6386 7.896C64.1106 7.592 63.5346 7.44 62.9106 7.44C62.3026 7.44 61.7266 7.6 61.1826 7.92C60.6546 8.224 60.2226 8.672 59.8866 9.264C59.5666 9.856 59.4066 10.552 59.4066 11.352C59.4066 12.152 59.5666 12.848 59.8866 13.44C60.2226 14.032 60.6546 14.488 61.1826 14.808C61.7266 15.112 62.3026 15.264 62.9106 15.264C63.5346 15.264 64.1106 15.104 64.6386 14.784C65.1826 14.464 65.6146 14.008 65.9346 13.416C66.2706 12.824 66.4386 12.12 66.4386 11.304ZM78.2163 18.216C76.9363 18.216 75.7843 17.936 74.7603 17.376C73.7363 16.8 72.9283 15.992 72.3363 14.952C71.7603 13.912 71.4723 12.712 71.4723 11.352C71.4723 9.992 71.7683 8.792 72.3603 7.752C72.9683 6.712 73.7923 5.912 74.8323 5.352C75.8723 4.776 77.0323 4.488 78.3123 4.488C79.5923 4.488 80.7523 4.776 81.7923 5.352C82.8323 5.912 83.6483 6.712 84.2403 7.752C84.8483 8.792 85.1523 9.992 85.1523 11.352C85.1523 12.712 84.8403 13.912 84.2162 14.952C83.6083 15.992 82.7763 16.8 81.7203 17.376C80.6803 17.936 79.5123 18.216 78.2163 18.216ZM78.2163 15.288C78.8243 15.288 79.3923 15.144 79.9203 14.856C80.4643 14.552 80.8963 14.104 81.2163 13.512C81.5363 12.92 81.6963 12.2 81.6963 11.352C81.6963 10.088 81.3603 9.12 80.6883 8.448C80.0323 7.76 79.2243 7.416 78.2643 7.416C77.3043 7.416 76.4963 7.76 75.8403 8.448C75.2003 9.12 74.8803 10.088 74.8803 11.352C74.8803 12.616 75.1923 13.592 75.8163 14.28C76.4563 14.952 77.2563 15.288 78.2163 15.288ZM92.7049 18.216C91.6169 18.216 90.6409 18.024 89.7769 17.64C88.9129 17.24 88.2249 16.704 87.7129 16.032C87.2169 15.36 86.9449 14.616 86.8969 13.8H90.2809C90.3449 14.312 90.5929 14.736 91.0249 15.072C91.4729 15.408 92.0249 15.576 92.6809 15.576C93.3209 15.576 93.8169 15.448 94.1689 15.192C94.5369 14.936 94.7209 14.608 94.7209 14.208C94.7209 13.776 94.4969 13.456 94.0489 13.248C93.6169 13.024 92.9209 12.784 91.9609 12.528C90.9689 12.288 90.1529 12.04 89.5129 11.784C88.8889 11.528 88.3449 11.136 87.8809 10.608C87.4329 10.08 87.2089 9.368 87.2089 8.472C87.2089 7.736 87.4169 7.064 87.8329 6.456C88.2649 5.848 88.8729 5.368 89.6569 5.016C90.4569 4.664 91.3929 4.488 92.4649 4.488C94.0489 4.488 95.3129 4.888 96.2569 5.688C97.2009 6.472 97.7209 7.536 97.8169 8.88H94.6009C94.5529 8.352 94.3289 7.936 93.9289 7.632C93.5449 7.312 93.0249 7.152 92.3689 7.152C91.7609 7.152 91.2889 7.264 90.9529 7.488C90.6329 7.712 90.4729 8.024 90.4729 8.424C90.4729 8.872 90.6969 9.216 91.1449 9.456C91.5929 9.68 92.2889 9.912 93.2329 10.152C94.1929 10.392 94.9849 10.64 95.6089 10.896C96.2329 11.152 96.7689 11.552 97.2169 12.096C97.6809 12.624 97.9209 13.328 97.9369 14.208C97.9369 14.976 97.7209 15.664 97.2889 16.272C96.8729 16.88 96.2649 17.36 95.4649 17.712C94.6809 18.048 93.7609 18.216 92.7049 18.216ZM104.607 7.464V13.896C104.607 14.344 104.711 14.672 104.919 14.88C105.143 15.072 105.511 15.168 106.023 15.168H107.583V18H105.471C102.639 18 101.223 16.624 101.223 13.872V7.464H99.6391V4.704H101.223V1.416H104.607V4.704H107.583V7.464H104.607Z" fill="#25D366"/>
<path d="M109.136 11.304C109.136 9.96 109.4 8.768 109.928 7.728C110.472 6.688 111.208 5.888 112.136 5.328C113.064 4.768 114.096 4.488 115.232 4.488C116.096 4.488 116.92 4.68 117.704 5.064C118.488 5.432 119.112 5.928 119.576 6.552V0.24H122.984V18H119.576V16.032C119.16 16.688 118.576 17.216 117.824 17.616C117.072 18.016 116.2 18.216 115.208 18.216C114.088 18.216 113.064 17.928 112.136 17.352C111.208 16.776 110.472 15.968 109.928 14.928C109.4 13.872 109.136 12.664 109.136 11.304ZM119.6 11.352C119.6 10.536 119.44 9.84 119.12 9.264C118.8 8.672 118.368 8.224 117.824 7.92C117.28 7.6 116.696 7.44 116.072 7.44C115.448 7.44 114.872 7.592 114.344 7.896C113.816 8.2 113.384 8.648 113.048 9.24C112.728 9.816 112.568 10.504 112.568 11.304C112.568 12.104 112.728 12.808 113.048 13.416C113.384 14.008 113.816 14.464 114.344 14.784C114.888 15.104 115.464 15.264 116.072 15.264C116.696 15.264 117.28 15.112 117.824 14.808C118.368 14.488 118.8 14.04 119.12 13.464C119.44 12.872 119.6 12.168 119.6 11.352ZM138.625 11.064C138.625 11.544 138.593 11.976 138.529 12.36H128.809C128.889 13.32 129.225 14.072 129.817 14.616C130.409 15.16 131.137 15.432 132.001 15.432C133.249 15.432 134.137 14.896 134.665 13.824H138.289C137.905 15.104 137.169 16.16 136.081 16.992C134.993 17.808 133.657 18.216 132.073 18.216C130.793 18.216 129.641 17.936 128.617 17.376C127.609 16.8 126.817 15.992 126.241 14.952C125.681 13.912 125.401 12.712 125.401 11.352C125.401 9.976 125.681 8.768 126.241 7.728C126.801 6.688 127.585 5.888 128.593 5.328C129.601 4.768 130.761 4.488 132.073 4.488C133.337 4.488 134.465 4.76 135.457 5.304C136.465 5.848 137.241 6.624 137.785 7.632C138.345 8.624 138.625 9.768 138.625 11.064ZM135.145 10.104C135.129 9.24 134.817 8.552 134.209 8.04C133.601 7.512 132.857 7.248 131.977 7.248C131.145 7.248 130.441 7.504 129.865 8.016C129.305 8.512 128.961 9.208 128.833 10.104H135.145ZM140.214 11.304C140.214 9.96 140.478 8.768 141.006 7.728C141.55 6.688 142.278 5.888 143.19 5.328C144.118 4.768 145.15 4.488 146.286 4.488C147.278 4.488 148.142 4.688 148.878 5.088C149.63 5.488 150.23 5.992 150.678 6.6V4.704H154.062V18H150.678V16.056C150.246 16.68 149.646 17.2 148.878 17.616C148.126 18.016 147.254 18.216 146.262 18.216C145.142 18.216 144.118 17.928 143.19 17.352C142.278 16.776 141.55 15.968 141.006 14.928C140.478 13.872 140.214 12.664 140.214 11.304ZM150.678 11.352C150.678 10.536 150.518 9.84 150.198 9.264C149.878 8.672 149.446 8.224 148.902 7.92C148.358 7.6 147.774 7.44 147.15 7.44C146.526 7.44 145.95 7.592 145.422 7.896C144.894 8.2 144.462 8.648 144.126 9.24C143.806 9.816 143.646 10.504 143.646 11.304C143.646 12.104 143.806 12.808 144.126 13.416C144.462 14.008 144.894 14.464 145.422 14.784C145.966 15.104 146.542 15.264 147.15 15.264C147.774 15.264 148.358 15.112 148.902 14.808C149.446 14.488 149.878 14.04 150.198 13.464C150.518 12.872 150.678 12.168 150.678 11.352ZM160.704 0.24V18H157.344V0.24H160.704ZM169.111 18.216C168.023 18.216 167.047 18.024 166.183 17.64C165.319 17.24 164.631 16.704 164.119 16.032C163.623 15.36 163.351 14.616 163.303 13.8H166.687C166.751 14.312 166.999 14.736 167.431 15.072C167.879 15.408 168.431 15.576 169.087 15.576C169.727 15.576 170.223 15.448 170.575 15.192C170.943 14.936 171.127 14.608 171.127 14.208C171.127 13.776 170.903 13.456 170.455 13.248C170.023 13.024 169.327 12.784 168.367 12.528C167.375 12.288 166.559 12.04 165.919 11.784C165.295 11.528 164.751 11.136 164.287 10.608C163.839 10.08 163.615 9.368 163.615 8.472C163.615 7.736 163.823 7.064 164.239 6.456C164.671 5.848 165.279 5.368 166.063 5.016C166.863 4.664 167.799 4.488 168.871 4.488C170.455 4.488 171.719 4.888 172.663 5.688C173.607 6.472 174.127 7.536 174.223 8.88H171.007C170.959 8.352 170.735 7.936 170.335 7.632C169.951 7.312 169.431 7.152 168.775 7.152C168.167 7.152 167.695 7.264 167.359 7.488C167.039 7.712 166.879 8.024 166.879 8.424C166.879 8.872 167.103 9.216 167.551 9.456C167.999 9.68 168.695 9.912 169.639 10.152C170.599 10.392 171.391 10.64 172.015 10.896C172.639 11.152 173.175 11.552 173.623 12.096C174.087 12.624 174.327 13.328 174.343 14.208C174.343 14.976 174.127 15.664 173.695 16.272C173.279 16.88 172.671 17.36 171.871 17.712C171.087 18.048 170.167 18.216 169.111 18.216Z" fill="#FFC200"/>
</svg>
